<?xml version="1.0" encoding="UTF-8" standalone="no"?>
<svg
   xmlns:dc="http://purl.org/dc/elements/1.1/"
   xmlns:cc="http://creativecommons.org/ns#"
   xmlns:rdf="http://www.w3.org/1999/02/22-rdf-syntax-ns#"
   xmlns:svg="http://www.w3.org/2000/svg"
   xmlns="http://www.w3.org/2000/svg"
   xmlns:sodipodi="http://sodipodi.sourceforge.net/DTD/sodipodi-0.dtd"
   xmlns:inkscape="http://www.inkscape.org/namespaces/inkscape"
   version="1.1"
   viewBox="0 -64 693.08972 693.08972"
   id="svg2"
   inkscape:version="0.91 r13725"
   sodipodi:docname="score_h5p_grey.svg"
   inkscape:export-filename="/home/john/Desktop/score_h5p.png"
   inkscape:export-xdpi="9.3500004"
   inkscape:export-ydpi="9.3500004"
   width="693.08972"
   height="693.08972">
  <metadata
     id="metadata12">
    <rdf:RDF>
      <cc:Work
         rdf:about="">
        <dc:format>image/svg+xml</dc:format>
        <dc:type
           rdf:resource="http://purl.org/dc/dcmitype/StillImage" />
        <dc:title></dc:title>
      </cc:Work>
    </rdf:RDF>
  </metadata>
  <defs
     id="defs10" />
  <sodipodi:namedview
     pagecolor="#ffffff"
     bordercolor="#666666"
     borderopacity="1"
     objecttolerance="10"
     gridtolerance="10"
     guidetolerance="10"
     inkscape:pageopacity="0"
     inkscape:pageshadow="2"
     inkscape:window-width="1861"
     inkscape:window-height="1056"
     id="namedview8"
     showgrid="false"
     inkscape:zoom="0.23046875"
     inkscape:cx="118.53045"
     inkscape:cy="315.19356"
     inkscape:window-x="59"
     inkscape:window-y="24"
     inkscape:window-maximized="1"
     inkscape:current-layer="svg2"
     fit-margin-top="0"
     fit-margin-left="0"
     fit-margin-right="0"
     fit-margin-bottom="0"
     units="px" />
  <g
     transform="matrix(1,0,0,-1,-198.42637,727.49293)"
     id="g4"
     inkscape:export-filename="/opt/lampp/htdocs/drupal/sites/default/files/h5p/development/h5p-interactive-video/src/gui/score_h5p_white.png"
     inkscape:export-xdpi="9.3500004"
     inkscape:export-ydpi="9.3500004"
     style="fill:#737373;fill-opacity:1">
    <path
       d="m 394.705,591.36 13.033,156.393 c 3.724,39.098 50.269,57.716 80.058,31.651 L 605.091,673.28 c 11.171,-11.171 27.927,-14.895 42.822,-11.171 l 152.669,37.236 c 39.098,9.309 70.749,-29.789 53.993,-67.025 L 789.411,487.098 c -5.585,-14.895 -5.585,-31.651 3.724,-44.684 l 81.92,-135.913 c 20.48,-33.513 -7.447,-76.335 -46.545,-72.611 l -158.255,18.618 c -16.756,1.862 -31.651,-3.724 -40.96,-16.756 L 526.895,114.734 C 500.83,84.945 450.56,97.978 443.113,137.076 l -31.651,154.531 c -3.724,14.895 -13.033,27.927 -27.927,33.513 l -147.084,61.44 c -35.375,14.895 -39.098,67.025 -3.724,85.644 L 370.502,550.4 c 13.033,11.171 22.342,26.065 24.204,40.96 l -0.001,0 z"
       id="path6"
       inkscape:connector-curvature="0"
       style="fill:#737373;fill-opacity:1" />
  </g>
</svg>
