<svg xmlns="http://www.w3.org/2000/svg" viewBox="0 0 400 225">
  <defs>
    <style>
      .cls-1 {
        fill: #d4efff;
      }

      .cls-2 {
        fill: #34495e;
      }

      .cls-3 {
        fill: #ecf0f1;
      }

      .cls-4 {
        fill: #2c3e50;
      }

      .cls-5 {
        fill: #2a80bb;
      }

      .cls-6 {
        fill: #3497da;
      }

      .cls-7 {
        fill: #8e44ad;
      }

      .cls-10, .cls-8 {
        opacity: 0.5;
      }

      .cls-9 {
        opacity: 0.25;
      }

      .cls-10 {
        fill: #662f84;
      }

      .cls-11 {
        opacity: 0.2;
      }

      .cls-12 {
        fill: #fff;
      }

      .cls-13 {
        opacity: 0.6;
      }

      .cls-14 {
        opacity: 0.3;
      }

      .cls-15 {
        fill: none;
      }
    </style>
  </defs>
  <title>interactive video</title>
  <g id="Layer_2" data-name="Layer 2">
    <g id="interactive_video" data-name="interactive video">
      <g>
        <rect class="cls-1" x="106" y="49.5" width="195" height="109"/>
        <rect class="cls-2" x="106" y="158.5" width="195" height="19"/>
        <polygon class="cls-3" points="112 162.77 119.52 167.11 112 171.45 112 162.77"/>
        <rect class="cls-4" x="124" y="165.5" width="169" height="5"/>
        <rect class="cls-3" x="124" y="165.5" width="52" height="5"/>
        <circle class="cls-5" cx="130.73" cy="73.57" r="17.1"/>
        <polygon class="cls-6" points="289.72 105.45 301 115.29 301 158.5 106 158.5 106 145.16 150.46 107.82 172.67 126.49 190.23 111.76 243.87 66.65 289.72 105.45"/>
        <circle class="cls-7" cx="207.53" cy="88.06" r="18.8"/>
        <g class="cls-8">
          <path class="cls-7" d="M207.53,65.78a22.29,22.29,0,1,1-22.29,22.29,22.31,22.31,0,0,1,22.29-22.29m0-4a26.28,26.28,0,1,0,26.28,26.28,26.28,26.28,0,0,0-26.28-26.28Z"/>
        </g>
        <g class="cls-9">
          <path class="cls-7" d="M207.53,58.92a29.14,29.14,0,1,1-29.14,29.14,29.18,29.18,0,0,1,29.14-29.14m0-4a33.13,33.13,0,1,0,33.13,33.13,33.13,33.13,0,0,0-33.13-33.13Z"/>
        </g>
        <path class="cls-10" d="M207.53,97.52a18.81,18.81,0,0,1-18.21-14.13,18.8,18.8,0,1,0,36.43,0A18.81,18.81,0,0,1,207.53,97.52Z"/>
        <g class="cls-11">
          <path d="M243,113v5.54L212,84.28s-4.76,41.31-6.46,76.13L222.4,177.5H301v-7.59Z"/>
        </g>
        <g id="_Group_" data-name="&lt;Group&gt;">
          <path class="cls-3" d="M250.67,119.18c0,7.69,0,15.39,0,23.08A32.63,32.63,0,0,1,246.23,159a23.22,23.22,0,0,1-7.15,7.71,17.16,17.16,0,0,1-9.64,3c-2.76,0-5.53.08-8.28-.07a17.35,17.35,0,0,1-10.53-4.53A26.55,26.55,0,0,1,203.15,154a4.44,4.44,0,0,0-.75-1.3c-1.94-2.29-3.86-4.61-5.89-6.83a31.85,31.85,0,0,0-9.92-7.15,5.65,5.65,0,0,1-3.38-4.59c-.29-2.38.89-4,2.87-5.15a12.1,12.1,0,0,1,6.85-1.36A17,17,0,0,1,200.8,130l.4.19c0-.89-.11-1.66-.11-2.42,0-11.71,0-26.15,0-37.86a7.27,7.27,0,0,1,8.55-7.12,7.1,7.1,0,0,1,6.12,7.41c0,3.11,0,9,0,12.08,0,1,0,2.07,0,3.21a7.44,7.44,0,0,1,11.49,4.07,7.39,7.39,0,0,1,7-1.12,7,7,0,0,1,4.7,5.39l.5-.31a7.4,7.4,0,0,1,10.29,2.29A6.46,6.46,0,0,1,250.67,119.18Z"/>
        </g>
        <path class="cls-12" d="M162.2,95.5H140.37A8.62,8.62,0,0,1,136.56,79c0-.28,0-.48,0-.76A10.27,10.27,0,0,1,156.3,74.4a5,5,0,0,1,3.33-1.23,5.15,5.15,0,0,1,5.14,5.14,5.06,5.06,0,0,1-.82,2.77,7.28,7.28,0,0,1,6,7.11A7.38,7.38,0,0,1,162.2,95.5Z"/>
        <g class="cls-13">
          <path class="cls-12" d="M152.86,95.5H131A8.62,8.62,0,0,1,127.22,79c0-.28,0-.48,0-.76A10.27,10.27,0,0,1,147,74.4a5,5,0,0,1,3.33-1.23,5.15,5.15,0,0,1,5.14,5.14,5.06,5.06,0,0,1-.82,2.77,7.28,7.28,0,0,1,6,7.11A7.38,7.38,0,0,1,152.86,95.5Z"/>
        </g>
        <g class="cls-14">
          <path class="cls-12" d="M143.82,95.5H122A8.62,8.62,0,0,1,118.19,79c0-.28,0-.48,0-.76a10.27,10.27,0,0,1,19.78-3.82,5,5,0,0,1,3.33-1.23,5.15,5.15,0,0,1,5.14,5.14,5.06,5.06,0,0,1-.82,2.77,7.28,7.28,0,0,1,6,7.11A7.38,7.38,0,0,1,143.82,95.5Z"/>
        </g>
      </g>
      <rect class="cls-15" width="400" height="225"/>
    </g>
  </g>
</svg>
